<svg width="163" height="163" viewBox="0 0 164 164" fill="none" xmlns="http://www.w3.org/2000/svg">
<g filter="url(#filter0_d_4_125)">
<path d="M82 10.25C42.3773 10.25 10.25 42.3773 10.25 82C10.25 121.623 42.3773 153.75 82 153.75C121.623 153.75 153.75 121.623 153.75 82C153.75 42.3773 121.623 10.25 82 10.25ZM105.079 83.1051L70.1004 108.554C69.9086 108.692 69.6826 108.774 69.4471 108.792C69.2117 108.809 68.9759 108.762 68.7657 108.654C68.5555 108.547 68.379 108.383 68.2556 108.182C68.1323 107.98 68.0668 107.749 68.0664 107.513V56.6473C68.0656 56.4107 68.1304 56.1785 68.2535 55.9764C68.3766 55.7743 68.5533 55.6103 68.7639 55.5025C68.9745 55.3947 69.2109 55.3473 69.4468 55.3657C69.6827 55.384 69.9089 55.4672 70.1004 55.6063L105.079 81.0391C105.244 81.1559 105.379 81.3107 105.472 81.4905C105.565 81.6702 105.613 81.8697 105.613 82.0721C105.613 82.2745 105.565 82.4739 105.472 82.6537C105.379 82.8334 105.244 82.9882 105.079 83.1051Z" fill="white"/>
</g>
<defs>
<filter id="filter0_d_4_125" x="-4" y="0" width="172" height="172" filterUnits="userSpaceOnUse" color-interpolation-filters="sRGB">
<feFlood flood-opacity="0" result="BackgroundImageFix"/>
<feColorMatrix in="SourceAlpha" type="matrix" values="0 0 0 0 0 0 0 0 0 0 0 0 0 0 0 0 0 0 127 0" result="hardAlpha"/>
<feOffset dy="4"/>
<feGaussianBlur stdDeviation="2"/>
<feComposite in2="hardAlpha" operator="out"/>
<feColorMatrix type="matrix" values="0 0 0 0 0 0 0 0 0 0 0 0 0 0 0 0 0 0 0.25 0"/>
<feBlend mode="normal" in2="BackgroundImageFix" result="effect1_dropShadow_4_125"/>
<feBlend mode="normal" in="SourceGraphic" in2="effect1_dropShadow_4_125" result="shape"/>
</filter>
</defs>
</svg>
