<svg width="63" height="38" viewBox="0 0 63 38" fill="none" xmlns="http://www.w3.org/2000/svg">
<path d="M3 16.5C1.61929 16.5 0.5 17.6193 0.5 19C0.5 20.3807 1.61929 21.5 3 21.5L3 16.5ZM61.7678 20.7678C62.7441 19.7915 62.7441 18.2085 61.7678 17.2322L45.8579 1.32233C44.8816 0.34602 43.2986 0.34602 42.3223 1.32233C41.346 2.29864 41.346 3.88155 42.3223 4.85786L56.4645 19L42.3223 33.1421C41.346 34.1184 41.346 35.7014 42.3223 36.6777C43.2986 37.654 44.8816 37.654 45.8579 36.6777L61.7678 20.7678ZM3 21.5L60 21.5V16.5L3 16.5L3 21.5Z" fill="#ECECEC"/>
</svg>
