<svg width="163" height="163" viewBox="0 0 75 75" fill="none" xmlns="http://www.w3.org/2000/svg">
<path d="M4.6875 37.5C4.6875 28.7976 8.14452 20.4516 14.2981 14.2981C20.4516 8.14452 28.7976 4.6875 37.5 4.6875C46.2024 4.6875 54.5484 8.14452 60.7019 14.2981C66.8555 20.4516 70.3125 28.7976 70.3125 37.5C70.3125 46.2024 66.8555 54.5484 60.7019 60.7019C54.5484 66.8555 46.2024 70.3125 37.5 70.3125C28.7976 70.3125 20.4516 66.8555 14.2981 60.7019C8.14452 54.5484 4.6875 46.2024 4.6875 37.5ZM28.125 23.4375C26.8818 23.4375 25.6895 23.9314 24.8104 24.8104C23.9314 25.6895 23.4375 26.8818 23.4375 28.125V46.875C23.4375 48.1182 23.9314 49.3105 24.8104 50.1896C25.6895 51.0686 26.8818 51.5625 28.125 51.5625H46.875C48.1182 51.5625 49.3105 51.0686 50.1896 50.1896C51.0686 49.3105 51.5625 48.1182 51.5625 46.875V28.125C51.5625 26.8818 51.0686 25.6895 50.1896 24.8104C49.3105 23.9314 48.1182 23.4375 46.875 23.4375H28.125Z" fill="white"/>
</svg>
