<svg width="75" height="75" viewBox="0 0 75 75" fill="none" xmlns="http://www.w3.org/2000/svg">
<path d="M37.5 68.75C20.2406 68.75 6.25 54.7594 6.25 37.5C6.25 20.2406 20.2406 6.25 37.5 6.25C54.7594 6.25 68.75 20.2406 68.75 37.5C68.75 54.7594 54.7594 68.75 37.5 68.75ZM52.5625 53.3625C56.545 49.5731 58.9547 44.4232 59.3122 38.9376C59.6697 33.452 57.9487 28.0329 54.4917 23.7587C51.0346 19.4845 46.0951 16.6686 40.656 15.8714C35.2169 15.0741 29.677 16.354 25.1387 19.4563C20.6005 22.5585 17.3967 27.2558 16.1648 32.6132C14.9329 37.9706 15.7634 43.5955 18.4908 48.3684C21.2182 53.1413 25.6428 56.7123 30.8838 58.3708C36.1249 60.0293 41.7983 59.6537 46.775 57.3188L43.7281 51.8344C40.6434 53.1751 37.2084 53.4846 33.9337 52.7169C30.659 51.9492 27.7194 50.1453 25.552 47.5733C23.3845 45.0014 22.1048 41.7986 21.9031 38.4412C21.7014 35.0838 22.5885 31.7509 24.4326 28.938C26.2766 26.125 28.979 23.9822 32.1383 22.828C35.2975 21.6739 38.7449 21.5699 41.9679 22.5317C45.191 23.4935 48.0176 25.4696 50.0277 28.1664C52.0378 30.8631 53.1241 34.1365 53.125 37.5H43.75L52.5625 53.3625Z" fill="white"/>
</svg>
